<?xml version="1.0" encoding="UTF-8" standalone="no"?>
<!-- Created with Inkscape (http://www.inkscape.org/) -->

<svg
   width="100"
   height="20"
   viewBox="0 0 26.458332 5.2916665"
   version="1.1"
   id="svg1"
   xmlns="http://www.w3.org/2000/svg"
   xmlns:svg="http://www.w3.org/2000/svg">
  <defs
     id="defs1" />
  <g
     id="layer1">
    <path
       id="text1"
       style="font-style:italic;font-weight:900;font-size:5.78598px;font-family:'Noto Sans';-inkscape-font-specification:'Noto Sans, Heavy Italic';fill:#166fc1;fill-opacity:0.980392;stroke-width:6.27002;stroke-linejoin:round;stroke-dashoffset:29.6029;paint-order:fill markers stroke"
       d="M 0.93537882,0.40363418 -8.3333336e-8,4.826079 H 1.6539224 c 0.3303138,0 0.6274289,-0.047748 0.89168,-0.1427129 0.2683798,-0.099094 0.4808844,-0.256028 0.6377834,-0.4707318 0.1610278,-0.2147041 0.241727,-0.4931111 0.241727,-0.8358116 0,-0.2105753 -0.053615,-0.3881726 -0.1609669,-0.5326849 C 3.1609229,2.6954968 3.0207414,2.5921783 2.8431978,2.5343732 V 2.5094812 C 3.1322223,2.4227738 3.3531031,2.2865041 3.5058729,2.1007025 3.6627722,1.914901 3.7409624,1.6714009 3.7409624,1.3699896 3.7409624,1.0892229 3.6376436,0.85801038 3.4311975,0.67633778 3.2247516,0.49466518 2.8843532,0.40363418 2.4095271,0.40363418 Z m 10.88823018,0 -0.935378,4.42244482 h 1.052646 l 0.340741,-1.6229458 c 0.04129,-0.1981885 0.08262,-0.4274452 0.123906,-0.6875671 0.04129,-0.2601222 0.08652,-0.5469055 0.136075,-0.8607036 h 0.02489 V 4.826079 h 1.121237 l 1.455342,-3.1712165 h 0.0249 c -0.01239,0.066063 -0.03752,0.1590496 -0.07467,0.2787882 -0.03303,0.1197388 -0.07436,0.2786283 -0.123907,0.4768165 -0.04954,0.1940595 -0.10707,0.4459357 -0.173136,0.7556048 l -0.352911,1.660007 h 1.058732 L 16.449621,0.40363418 H 14.858204 L 13.415033,3.5438742 h -0.02489 V 0.40363418 Z M 21.56571,0.71339888 21.150847,1.4380272 20.494255,1.7046461 20.37035,2.2804766 h 0.464647 l -0.254449,1.2141671 c -0.01652,0.082578 -0.03272,0.1775209 -0.04923,0.284873 -0.01652,0.107352 -0.02489,0.2022946 -0.02489,0.2848729 0,0.2890244 0.07624,0.4995733 0.229005,0.631699 0.156899,0.1279965 0.384199,0.1919433 0.681482,0.1919433 0.222962,0 0.416759,-0.018709 0.581915,-0.055868 0.169286,-0.03716 0.318396,-0.086864 0.446393,-0.1487977 V 3.8038554 c -0.0991,0.041289 -0.196546,0.07675 -0.291511,0.1056518 -0.09497,0.024773 -0.181531,0.037061 -0.259981,0.037061 -0.05368,0 -0.09892,-0.014795 -0.136075,-0.043699 -0.03715,-0.033031 -0.05586,-0.082182 -0.05586,-0.1482444 0,-0.033031 0.004,-0.078823 0.01217,-0.1366285 0.01238,-0.061934 0.02523,-0.1214159 0.03761,-0.1792208 L 22.00546,2.2804762 h 0.872873 L 23.070282,1.4009661 H 22.197409 L 22.345654,0.71339888 Z M 1.9387953,1.3080366 h 0.1919435 c 0.2559932,0 0.3838872,0.1033185 0.3838872,0.3097648 0,0.1403833 -0.039372,0.2559896 -0.1178213,0.3468258 -0.074321,0.090836 -0.2145021,0.1360753 -0.4209482,0.1360753 H 1.7590212 Z m 7.5682173,0.030977 c -0.4789557,0 -0.8341507,0.1013628 -1.0653703,0.3036801 C 8.2145515,1.840882 8.100901,2.1011343 8.100901,2.4231903 c 0,0.2147038 0.047748,0.3981685 0.1427131,0.5509387 0.099095,0.148641 0.256028,0.2829555 0.4707318,0.4026942 0.1403832,0.074321 0.2437017,0.1363115 0.3097642,0.1858587 0.066063,0.049548 0.1093485,0.092831 0.1299915,0.1299906 0.02065,0.03716 0.03098,0.078488 0.03098,0.123906 0,0.061934 -0.02513,0.1071726 -0.074675,0.1360752 -0.045416,0.028902 -0.1009859,0.049567 -0.1670518,0.061953 -0.061934,0.00825 -0.1175047,0.012168 -0.1670519,0.012168 -0.1651569,0 -0.3285111,-0.018153 -0.4895389,-0.055315 C 8.129861,3.9301696 7.9586838,3.8578465 7.7728822,3.7546236 v 0.9414637 c 0.1321255,0.061934 0.2871036,0.1091285 0.4646473,0.1421598 0.1816724,0.033032 0.3858011,0.049784 0.6128911,0.049784 0.466569,0 0.836007,-0.1013627 1.108516,-0.30368 0.2766374,-0.2064462 0.4154164,-0.5222693 0.4154164,-0.9475484 0,-0.42115 -0.227301,-0.7433934 -0.6814824,-0.9663552 -0.14038,-0.070191 -0.243699,-0.127718 -0.309765,-0.1731364 -0.06193,-0.045418 -0.09293,-0.097077 -0.09293,-0.1548823 0,-0.1362544 0.07624,-0.2046661 0.229004,-0.2046661 0.119739,0 0.250142,0.029039 0.390525,0.086845 0.1445124,0.057805 0.2743624,0.1242608 0.3899724,0.1985814 L 10.665311,1.6609458 C 10.491896,1.5535954 10.309834,1.4734494 10.119904,1.4197732 9.9341016,1.3660972 9.7299736,1.3390132 9.5070126,1.3390136 Z m 8.6894524,0 c -0.206445,0 -0.392419,0.049704 -0.557576,0.1487977 -0.165157,0.099095 -0.309804,0.2308995 -0.433671,0.3960563 -0.119739,0.165157 -0.218593,0.347219 -0.297043,0.5454073 -0.07845,0.1981883 -0.138484,0.3984051 -0.179773,0.6007222 -0.03715,0.2023173 -0.05587,0.3857818 -0.05587,0.5509389 0,0.3261847 0.04383,0.5844813 0.130543,0.7744117 0.09084,0.1899306 0.210355,0.3262005 0.358995,0.4087788 0.148641,0.082578 0.309487,0.123906 0.482901,0.123906 0.202318,0 0.365671,-0.039372 0.48954,-0.1178211 0.123867,-0.082578 0.231097,-0.1878528 0.321934,-0.3158495 h 0.02489 l -0.03098,0.3717176 h 0.935379 l 0.724629,-3.4251129 h -0.93538 l -0.160966,0.4209481 h -0.02489 C 18.906552,1.677402 18.801278,1.5617957 18.673281,1.4750883 18.549414,1.384252 18.390524,1.3390131 18.196465,1.3390136 Z m 7.029447,0 c -0.334442,0 -0.62569,0.061991 -0.873425,0.1858589 -0.243607,0.1197387 -0.44578,0.2830928 -0.606808,0.4895388 -0.161028,0.2064463 -0.283055,0.4415701 -0.365633,0.7058211 -0.07845,0.2601222 -0.117268,0.5307063 -0.117268,0.8114732 0,0.4211499 0.117562,0.7531721 0.35291,0.9967785 0.23535,0.2394776 0.569881,0.3595484 1.003417,0.3595484 0.297283,3e-7 0.542738,-0.029039 0.736798,-0.086845 0.198188,-0.057806 0.388073,-0.1320837 0.569745,-0.2229199 V 3.7485403 c -0.177543,0.090836 -0.344809,0.162606 -0.501708,0.2162821 -0.15277,0.053676 -0.31557,0.080761 -0.488986,0.080761 -0.330313,0 -0.495622,-0.1485575 -0.495622,-0.4458399 v -0.049784 h 0.179773 c 0.639983,0 1.106319,-0.1156062 1.399473,-0.3468259 0.293154,-0.2312196 0.439755,-0.5347552 0.439755,-0.9104871 0,-0.2890245 -0.109186,-0.5202369 -0.328019,-0.6936517 C 25.911481,1.4255797 25.609902,1.3390133 25.225912,1.3390136 Z M 4.5773272,1.4009661 4.1928869,3.2219401 c -0.020646,0.107352 -0.038799,0.2210025 -0.055315,0.3407412 -0.012388,0.1197388 -0.018807,0.2373009 -0.018807,0.3529106 0,0.1734148 0.030996,0.33426 0.092929,0.4829013 0.061934,0.1486411 0.158832,0.2687119 0.2909575,0.3595481 0.1362543,0.086708 0.3099403,0.1299906 0.5205153,0.1299906 0.2188329,0 0.4022974,-0.041327 0.5509387,-0.1239057 0.1486411,-0.086708 0.2790439,-0.2249331 0.3905248,-0.4148637 h 0.024339 L 5.9519092,4.826079 H 6.8872877 L 7.6119153,1.4009661 H 6.441447 L 6.0885365,3.0670578 C 6.0224738,3.3725981 5.9373099,3.5973899 5.834087,3.7419024 5.7349928,3.8822858 5.6341832,3.9526531 5.5309599,3.9526531 c -0.061934,0 -0.1155485,-0.020664 -0.1609669,-0.061954 C 5.324574,3.8452801 5.301955,3.7793783 5.301955,3.6926712 c 0,-0.070191 0.00587,-0.1444705 0.018254,-0.22292 0.012388,-0.082578 0.024675,-0.15099 0.037061,-0.204666 L 5.747795,1.4009661 Z M 25.095922,2.131679 c 0.0867,0 0.150654,0.022619 0.191943,0.068038 0.04129,0.041289 0.06195,0.095457 0.06195,0.1615201 0,0.1032232 -0.05166,0.2059885 -0.154882,0.3092117 -0.10322,0.099094 -0.287241,0.1487977 -0.551492,0.1487977 h -0.0863 c 0.01651,-0.1073521 0.04947,-0.2126263 0.09901,-0.3158495 0.04955,-0.1073516 0.111539,-0.195874 0.185859,-0.2660658 0.07845,-0.070192 0.16306,-0.1056519 0.253897,-0.1056519 z m -6.627307,0.1487976 c 0.08258,0 0.14457,0.039372 0.185859,0.1178214 0.04129,0.078449 0.06196,0.1837237 0.06196,0.3158492 0,0.061934 -0.004,0.1258806 -0.01217,0.1919436 l -0.02489,0.1858587 c -0.02477,0.1486413 -0.06414,0.2888229 -0.117821,0.4209484 -0.05368,0.1279964 -0.117623,0.2332709 -0.191943,0.3158492 -0.07019,0.07845 -0.150339,0.1178214 -0.241175,0.1178214 -0.173415,0 -0.260534,-0.1446461 -0.260534,-0.4336706 0,-0.1981883 0.02708,-0.3900292 0.08076,-0.5758307 0.0578,-0.1899304 0.132084,-0.346864 0.22292,-0.4707316 0.09083,-0.1238676 0.18969,-0.185859 0.297042,-0.185859 z M 1.579247,2.9741284 h 0.204666 c 0.1692856,0 0.2868475,0.034907 0.3529105,0.1050986 0.066063,0.066063 0.099014,0.1693812 0.099014,0.3097646 0,0.1403835 -0.05557,0.2624101 -0.1670517,0.3656331 C 1.957305,3.8537193 1.8107032,3.9028694 1.6290306,3.9028694 H 1.3812188 Z" />
  </g>
</svg>
